<mxfile>
    <diagram id="YDZ4DAkkory_xYZWuc3F" name="Page-1">
        <mxGraphModel dx="1427" dy="1427" grid="1" gridSize="10" guides="1" tooltips="1" connect="1" arrows="1" fold="1" page="1" pageScale="1" pageWidth="850" pageHeight="1100" math="0" shadow="0">
            <root>
                <mxCell id="0"/>
                <mxCell id="1" parent="0"/>
                <mxCell id="KcAoEb_nWxJq3dwX2HvO-5" value="CoreModule&#10;" style="swimlane;fontStyle=1;align=center;verticalAlign=top;childLayout=stackLayout;horizontal=1;startSize=26;horizontalStack=0;resizeParent=1;resizeParentMax=0;resizeLast=0;collapsible=1;marginBottom=0;" parent="1" vertex="1">
                    <mxGeometry x="-810" y="-1080" width="160" height="88" as="geometry"/>
                </mxCell>
                <mxCell id="KcAoEb_nWxJq3dwX2HvO-6" value="Declares: Home, Dropdown,&#10; NotFound" style="text;strokeColor=none;fillColor=none;align=left;verticalAlign=top;spacingLeft=4;spacingRight=4;overflow=hidden;rotatable=0;points=[[0,0.5],[1,0.5]];portConstraint=eastwest;" parent="KcAoEb_nWxJq3dwX2HvO-5" vertex="1">
                    <mxGeometry y="26" width="160" height="34" as="geometry"/>
                </mxCell>
                <mxCell id="KcAoEb_nWxJq3dwX2HvO-7" value="" style="line;strokeWidth=1;fillColor=none;align=left;verticalAlign=middle;spacingTop=-1;spacingLeft=3;spacingRight=3;rotatable=0;labelPosition=right;points=[];portConstraint=eastwest;" parent="KcAoEb_nWxJq3dwX2HvO-5" vertex="1">
                    <mxGeometry y="60" width="160" height="8" as="geometry"/>
                </mxCell>
                <mxCell id="KcAoEb_nWxJq3dwX2HvO-8" value="Provides: Auth" style="text;strokeColor=none;fillColor=none;align=left;verticalAlign=top;spacingLeft=4;spacingRight=4;overflow=hidden;rotatable=0;points=[[0,0.5],[1,0.5]];portConstraint=eastwest;" parent="KcAoEb_nWxJq3dwX2HvO-5" vertex="1">
                    <mxGeometry y="68" width="160" height="20" as="geometry"/>
                </mxCell>
                <mxCell id="KcAoEb_nWxJq3dwX2HvO-17" value="AppModule (Root)" style="swimlane;fontStyle=1;align=center;verticalAlign=top;childLayout=stackLayout;horizontal=1;startSize=26;horizontalStack=0;resizeParent=1;resizeParentMax=0;resizeLast=0;collapsible=1;marginBottom=0;" parent="1" vertex="1">
                    <mxGeometry x="-460" y="-1020" width="160" height="60" as="geometry"/>
                </mxCell>
                <mxCell id="KcAoEb_nWxJq3dwX2HvO-18" value="Declares: AppComponent" style="text;strokeColor=none;fillColor=none;align=left;verticalAlign=top;spacingLeft=4;spacingRight=4;overflow=hidden;rotatable=0;points=[[0,0.5],[1,0.5]];portConstraint=eastwest;" parent="KcAoEb_nWxJq3dwX2HvO-17" vertex="1">
                    <mxGeometry y="26" width="160" height="26" as="geometry"/>
                </mxCell>
                <mxCell id="KcAoEb_nWxJq3dwX2HvO-19" value="" style="line;strokeWidth=1;fillColor=none;align=left;verticalAlign=middle;spacingTop=-1;spacingLeft=3;spacingRight=3;rotatable=0;labelPosition=right;points=[];portConstraint=eastwest;" parent="KcAoEb_nWxJq3dwX2HvO-17" vertex="1">
                    <mxGeometry y="52" width="160" height="8" as="geometry"/>
                </mxCell>
                <mxCell id="KcAoEb_nWxJq3dwX2HvO-31" style="edgeStyle=orthogonalEdgeStyle;rounded=0;orthogonalLoop=1;jettySize=auto;html=1;" parent="1" source="KcAoEb_nWxJq3dwX2HvO-21" edge="1">
                    <mxGeometry relative="1" as="geometry">
                        <mxPoint x="-380" y="-950" as="targetPoint"/>
                    </mxGeometry>
                </mxCell>
                <mxCell id="KcAoEb_nWxJq3dwX2HvO-21" value="App-routing" style="swimlane;fontStyle=0;childLayout=stackLayout;horizontal=1;startSize=26;fillColor=none;horizontalStack=0;resizeParent=1;resizeParentMax=0;resizeLast=0;collapsible=1;marginBottom=0;" parent="1" vertex="1">
                    <mxGeometry x="-450" y="-900" width="140" height="80" as="geometry"/>
                </mxCell>
                <mxCell id="KcAoEb_nWxJq3dwX2HvO-23" value="Estabilishes root routes,&#10;lazily loades modules as&#10; needed&#10;" style="text;strokeColor=none;fillColor=none;align=left;verticalAlign=top;spacingLeft=4;spacingRight=4;overflow=hidden;rotatable=0;points=[[0,0.5],[1,0.5]];portConstraint=eastwest;" parent="KcAoEb_nWxJq3dwX2HvO-21" vertex="1">
                    <mxGeometry y="26" width="140" height="54" as="geometry"/>
                </mxCell>
                <mxCell id="KcAoEb_nWxJq3dwX2HvO-25" style="edgeStyle=orthogonalEdgeStyle;rounded=0;orthogonalLoop=1;jettySize=auto;html=1;entryX=-0.058;entryY=0.43;entryDx=0;entryDy=0;entryPerimeter=0;" parent="1" source="KcAoEb_nWxJq3dwX2HvO-6" target="KcAoEb_nWxJq3dwX2HvO-18" edge="1">
                    <mxGeometry relative="1" as="geometry"/>
                </mxCell>
                <mxCell id="KcAoEb_nWxJq3dwX2HvO-32" value="SharedModule" style="swimlane;fontStyle=1;align=center;verticalAlign=top;childLayout=stackLayout;horizontal=1;startSize=26;horizontalStack=0;resizeParent=1;resizeParentMax=0;resizeLast=0;collapsible=1;marginBottom=0;" parent="1" vertex="1">
                    <mxGeometry x="-520" y="-230" width="160" height="86" as="geometry"/>
                </mxCell>
                <mxCell id="KcAoEb_nWxJq3dwX2HvO-33" value="Declares:" style="text;strokeColor=none;fillColor=none;align=left;verticalAlign=top;spacingLeft=4;spacingRight=4;overflow=hidden;rotatable=0;points=[[0,0.5],[1,0.5]];portConstraint=eastwest;" parent="KcAoEb_nWxJq3dwX2HvO-32" vertex="1">
                    <mxGeometry y="26" width="160" height="26" as="geometry"/>
                </mxCell>
                <mxCell id="KcAoEb_nWxJq3dwX2HvO-34" value="" style="line;strokeWidth=1;fillColor=none;align=left;verticalAlign=middle;spacingTop=-1;spacingLeft=3;spacingRight=3;rotatable=0;labelPosition=right;points=[];portConstraint=eastwest;" parent="KcAoEb_nWxJq3dwX2HvO-32" vertex="1">
                    <mxGeometry y="52" width="160" height="8" as="geometry"/>
                </mxCell>
                <mxCell id="KcAoEb_nWxJq3dwX2HvO-35" value="+ method(type): type" style="text;strokeColor=none;fillColor=none;align=left;verticalAlign=top;spacingLeft=4;spacingRight=4;overflow=hidden;rotatable=0;points=[[0,0.5],[1,0.5]];portConstraint=eastwest;" parent="KcAoEb_nWxJq3dwX2HvO-32" vertex="1">
                    <mxGeometry y="60" width="160" height="26" as="geometry"/>
                </mxCell>
                <mxCell id="KcAoEb_nWxJq3dwX2HvO-65" style="edgeStyle=orthogonalEdgeStyle;rounded=0;orthogonalLoop=1;jettySize=auto;html=1;entryX=0.56;entryY=1.035;entryDx=0;entryDy=0;entryPerimeter=0;" parent="1" source="KcAoEb_nWxJq3dwX2HvO-36" target="KcAoEb_nWxJq3dwX2HvO-23" edge="1">
                    <mxGeometry relative="1" as="geometry">
                        <mxPoint x="-720.0000000000002" y="-790" as="targetPoint"/>
                        <Array as="points">
                            <mxPoint x="-760" y="-760"/>
                            <mxPoint x="-372" y="-760"/>
                        </Array>
                    </mxGeometry>
                </mxCell>
                <mxCell id="KcAoEb_nWxJq3dwX2HvO-36" value="AdminModule" style="swimlane;fontStyle=1;align=center;verticalAlign=top;childLayout=stackLayout;horizontal=1;startSize=26;horizontalStack=0;resizeParent=1;resizeParentMax=0;resizeLast=0;collapsible=1;marginBottom=0;" parent="1" vertex="1">
                    <mxGeometry x="-840" y="-720" width="160" height="150" as="geometry"/>
                </mxCell>
                <mxCell id="KcAoEb_nWxJq3dwX2HvO-37" value="declares:" style="text;strokeColor=none;fillColor=none;align=left;verticalAlign=top;spacingLeft=4;spacingRight=4;overflow=hidden;rotatable=0;points=[[0,0.5],[1,0.5]];portConstraint=eastwest;" parent="KcAoEb_nWxJq3dwX2HvO-36" vertex="1">
                    <mxGeometry y="26" width="160" height="26" as="geometry"/>
                </mxCell>
                <mxCell id="KcAoEb_nWxJq3dwX2HvO-38" value="" style="line;strokeWidth=1;fillColor=none;align=left;verticalAlign=middle;spacingTop=-1;spacingLeft=3;spacingRight=3;rotatable=0;labelPosition=right;points=[];portConstraint=eastwest;" parent="KcAoEb_nWxJq3dwX2HvO-36" vertex="1">
                    <mxGeometry y="52" width="160" height="8" as="geometry"/>
                </mxCell>
                <mxCell id="KcAoEb_nWxJq3dwX2HvO-39" value="+ method(type): type" style="text;strokeColor=none;fillColor=none;align=left;verticalAlign=top;spacingLeft=4;spacingRight=4;overflow=hidden;rotatable=0;points=[[0,0.5],[1,0.5]];portConstraint=eastwest;" parent="KcAoEb_nWxJq3dwX2HvO-36" vertex="1">
                    <mxGeometry y="60" width="160" height="90" as="geometry"/>
                </mxCell>
                <mxCell id="KcAoEb_nWxJq3dwX2HvO-67" style="edgeStyle=orthogonalEdgeStyle;rounded=0;orthogonalLoop=1;jettySize=auto;html=1;endArrow=none;endFill=0;" parent="1" source="KcAoEb_nWxJq3dwX2HvO-40" edge="1">
                    <mxGeometry relative="1" as="geometry">
                        <mxPoint x="-585" y="-760" as="targetPoint"/>
                    </mxGeometry>
                </mxCell>
                <mxCell id="KcAoEb_nWxJq3dwX2HvO-40" value="UserModule" style="swimlane;fontStyle=1;align=center;verticalAlign=top;childLayout=stackLayout;horizontal=1;startSize=26;horizontalStack=0;resizeParent=1;resizeParentMax=0;resizeLast=0;collapsible=1;marginBottom=0;" parent="1" vertex="1">
                    <mxGeometry x="-665" y="-720" width="160" height="86" as="geometry"/>
                </mxCell>
                <mxCell id="KcAoEb_nWxJq3dwX2HvO-41" value="+ field: type" style="text;strokeColor=none;fillColor=none;align=left;verticalAlign=top;spacingLeft=4;spacingRight=4;overflow=hidden;rotatable=0;points=[[0,0.5],[1,0.5]];portConstraint=eastwest;" parent="KcAoEb_nWxJq3dwX2HvO-40" vertex="1">
                    <mxGeometry y="26" width="160" height="26" as="geometry"/>
                </mxCell>
                <mxCell id="KcAoEb_nWxJq3dwX2HvO-42" value="" style="line;strokeWidth=1;fillColor=none;align=left;verticalAlign=middle;spacingTop=-1;spacingLeft=3;spacingRight=3;rotatable=0;labelPosition=right;points=[];portConstraint=eastwest;" parent="KcAoEb_nWxJq3dwX2HvO-40" vertex="1">
                    <mxGeometry y="52" width="160" height="8" as="geometry"/>
                </mxCell>
                <mxCell id="KcAoEb_nWxJq3dwX2HvO-43" value="+ method(type): type" style="text;strokeColor=none;fillColor=none;align=left;verticalAlign=top;spacingLeft=4;spacingRight=4;overflow=hidden;rotatable=0;points=[[0,0.5],[1,0.5]];portConstraint=eastwest;" parent="KcAoEb_nWxJq3dwX2HvO-40" vertex="1">
                    <mxGeometry y="60" width="160" height="26" as="geometry"/>
                </mxCell>
                <mxCell id="KcAoEb_nWxJq3dwX2HvO-68" style="edgeStyle=orthogonalEdgeStyle;rounded=0;orthogonalLoop=1;jettySize=auto;html=1;endArrow=none;endFill=0;" parent="1" source="KcAoEb_nWxJq3dwX2HvO-44" edge="1">
                    <mxGeometry relative="1" as="geometry">
                        <mxPoint x="-410" y="-760" as="targetPoint"/>
                    </mxGeometry>
                </mxCell>
                <mxCell id="KcAoEb_nWxJq3dwX2HvO-44" value="ForumModule" style="swimlane;fontStyle=1;align=center;verticalAlign=top;childLayout=stackLayout;horizontal=1;startSize=26;horizontalStack=0;resizeParent=1;resizeParentMax=0;resizeLast=0;collapsible=1;marginBottom=0;" parent="1" vertex="1">
                    <mxGeometry x="-490" y="-720" width="160" height="86" as="geometry"/>
                </mxCell>
                <mxCell id="KcAoEb_nWxJq3dwX2HvO-45" value="+ field: type" style="text;strokeColor=none;fillColor=none;align=left;verticalAlign=top;spacingLeft=4;spacingRight=4;overflow=hidden;rotatable=0;points=[[0,0.5],[1,0.5]];portConstraint=eastwest;" parent="KcAoEb_nWxJq3dwX2HvO-44" vertex="1">
                    <mxGeometry y="26" width="160" height="26" as="geometry"/>
                </mxCell>
                <mxCell id="KcAoEb_nWxJq3dwX2HvO-46" value="" style="line;strokeWidth=1;fillColor=none;align=left;verticalAlign=middle;spacingTop=-1;spacingLeft=3;spacingRight=3;rotatable=0;labelPosition=right;points=[];portConstraint=eastwest;" parent="KcAoEb_nWxJq3dwX2HvO-44" vertex="1">
                    <mxGeometry y="52" width="160" height="8" as="geometry"/>
                </mxCell>
                <mxCell id="KcAoEb_nWxJq3dwX2HvO-47" value="+ method(type): type" style="text;strokeColor=none;fillColor=none;align=left;verticalAlign=top;spacingLeft=4;spacingRight=4;overflow=hidden;rotatable=0;points=[[0,0.5],[1,0.5]];portConstraint=eastwest;" parent="KcAoEb_nWxJq3dwX2HvO-44" vertex="1">
                    <mxGeometry y="60" width="160" height="26" as="geometry"/>
                </mxCell>
                <mxCell id="KcAoEb_nWxJq3dwX2HvO-69" style="edgeStyle=orthogonalEdgeStyle;rounded=0;orthogonalLoop=1;jettySize=auto;html=1;endArrow=none;endFill=0;" parent="1" source="KcAoEb_nWxJq3dwX2HvO-48" edge="1">
                    <mxGeometry relative="1" as="geometry">
                        <mxPoint x="-230" y="-760" as="targetPoint"/>
                    </mxGeometry>
                </mxCell>
                <mxCell id="KcAoEb_nWxJq3dwX2HvO-48" value="GamesModule" style="swimlane;fontStyle=1;align=center;verticalAlign=top;childLayout=stackLayout;horizontal=1;startSize=26;horizontalStack=0;resizeParent=1;resizeParentMax=0;resizeLast=0;collapsible=1;marginBottom=0;" parent="1" vertex="1">
                    <mxGeometry x="-310" y="-720" width="160" height="86" as="geometry"/>
                </mxCell>
                <mxCell id="KcAoEb_nWxJq3dwX2HvO-49" value="+ field: type" style="text;strokeColor=none;fillColor=none;align=left;verticalAlign=top;spacingLeft=4;spacingRight=4;overflow=hidden;rotatable=0;points=[[0,0.5],[1,0.5]];portConstraint=eastwest;" parent="KcAoEb_nWxJq3dwX2HvO-48" vertex="1">
                    <mxGeometry y="26" width="160" height="26" as="geometry"/>
                </mxCell>
                <mxCell id="KcAoEb_nWxJq3dwX2HvO-50" value="" style="line;strokeWidth=1;fillColor=none;align=left;verticalAlign=middle;spacingTop=-1;spacingLeft=3;spacingRight=3;rotatable=0;labelPosition=right;points=[];portConstraint=eastwest;" parent="KcAoEb_nWxJq3dwX2HvO-48" vertex="1">
                    <mxGeometry y="52" width="160" height="8" as="geometry"/>
                </mxCell>
                <mxCell id="KcAoEb_nWxJq3dwX2HvO-51" value="+ method(type): type" style="text;strokeColor=none;fillColor=none;align=left;verticalAlign=top;spacingLeft=4;spacingRight=4;overflow=hidden;rotatable=0;points=[[0,0.5],[1,0.5]];portConstraint=eastwest;" parent="KcAoEb_nWxJq3dwX2HvO-48" vertex="1">
                    <mxGeometry y="60" width="160" height="26" as="geometry"/>
                </mxCell>
                <mxCell id="KcAoEb_nWxJq3dwX2HvO-71" style="edgeStyle=orthogonalEdgeStyle;rounded=0;orthogonalLoop=1;jettySize=auto;html=1;endArrow=none;endFill=0;" parent="1" source="KcAoEb_nWxJq3dwX2HvO-56" edge="1">
                    <mxGeometry relative="1" as="geometry">
                        <mxPoint x="-40" y="-760" as="targetPoint"/>
                    </mxGeometry>
                </mxCell>
                <mxCell id="KcAoEb_nWxJq3dwX2HvO-56" value="ContentModule" style="swimlane;fontStyle=1;align=center;verticalAlign=top;childLayout=stackLayout;horizontal=1;startSize=26;horizontalStack=0;resizeParent=1;resizeParentMax=0;resizeLast=0;collapsible=1;marginBottom=0;" parent="1" vertex="1">
                    <mxGeometry x="-120" y="-720" width="160" height="90" as="geometry"/>
                </mxCell>
                <mxCell id="KcAoEb_nWxJq3dwX2HvO-57" value="+ field: type" style="text;strokeColor=none;fillColor=none;align=left;verticalAlign=top;spacingLeft=4;spacingRight=4;overflow=hidden;rotatable=0;points=[[0,0.5],[1,0.5]];portConstraint=eastwest;" parent="KcAoEb_nWxJq3dwX2HvO-56" vertex="1">
                    <mxGeometry y="26" width="160" height="26" as="geometry"/>
                </mxCell>
                <mxCell id="KcAoEb_nWxJq3dwX2HvO-58" value="" style="line;strokeWidth=1;fillColor=none;align=left;verticalAlign=middle;spacingTop=-1;spacingLeft=3;spacingRight=3;rotatable=0;labelPosition=right;points=[];portConstraint=eastwest;" parent="KcAoEb_nWxJq3dwX2HvO-56" vertex="1">
                    <mxGeometry y="52" width="160" height="8" as="geometry"/>
                </mxCell>
                <mxCell id="KcAoEb_nWxJq3dwX2HvO-59" value="+ method(type): type" style="text;strokeColor=none;fillColor=none;align=left;verticalAlign=top;spacingLeft=4;spacingRight=4;overflow=hidden;rotatable=0;points=[[0,0.5],[1,0.5]];portConstraint=eastwest;" parent="KcAoEb_nWxJq3dwX2HvO-56" vertex="1">
                    <mxGeometry y="60" width="160" height="30" as="geometry"/>
                </mxCell>
                <mxCell id="KcAoEb_nWxJq3dwX2HvO-66" style="edgeStyle=orthogonalEdgeStyle;rounded=0;orthogonalLoop=1;jettySize=auto;html=1;endArrow=none;endFill=0;" parent="1" source="KcAoEb_nWxJq3dwX2HvO-60" edge="1">
                    <mxGeometry relative="1" as="geometry">
                        <mxPoint x="-370" y="-760" as="targetPoint"/>
                        <Array as="points">
                            <mxPoint x="150" y="-760"/>
                        </Array>
                    </mxGeometry>
                </mxCell>
                <mxCell id="KcAoEb_nWxJq3dwX2HvO-60" value="ContribModule" style="swimlane;fontStyle=1;align=center;verticalAlign=top;childLayout=stackLayout;horizontal=1;startSize=26;horizontalStack=0;resizeParent=1;resizeParentMax=0;resizeLast=0;collapsible=1;marginBottom=0;" parent="1" vertex="1">
                    <mxGeometry x="70" y="-720" width="160" height="86" as="geometry"/>
                </mxCell>
                <mxCell id="KcAoEb_nWxJq3dwX2HvO-61" value="+ field: type" style="text;strokeColor=none;fillColor=none;align=left;verticalAlign=top;spacingLeft=4;spacingRight=4;overflow=hidden;rotatable=0;points=[[0,0.5],[1,0.5]];portConstraint=eastwest;" parent="KcAoEb_nWxJq3dwX2HvO-60" vertex="1">
                    <mxGeometry y="26" width="160" height="26" as="geometry"/>
                </mxCell>
                <mxCell id="KcAoEb_nWxJq3dwX2HvO-62" value="" style="line;strokeWidth=1;fillColor=none;align=left;verticalAlign=middle;spacingTop=-1;spacingLeft=3;spacingRight=3;rotatable=0;labelPosition=right;points=[];portConstraint=eastwest;" parent="KcAoEb_nWxJq3dwX2HvO-60" vertex="1">
                    <mxGeometry y="52" width="160" height="8" as="geometry"/>
                </mxCell>
                <mxCell id="KcAoEb_nWxJq3dwX2HvO-63" value="+ method(type): type" style="text;strokeColor=none;fillColor=none;align=left;verticalAlign=top;spacingLeft=4;spacingRight=4;overflow=hidden;rotatable=0;points=[[0,0.5],[1,0.5]];portConstraint=eastwest;" parent="KcAoEb_nWxJq3dwX2HvO-60" vertex="1">
                    <mxGeometry y="60" width="160" height="26" as="geometry"/>
                </mxCell>
            </root>
        </mxGraphModel>
    </diagram>
</mxfile>